<svg xmlns="http://www.w3.org/2000/svg" viewBox="0 0 512 512"><path d="M234.133 0c-29.307 0-52.924 22.178-52.924 49.725 0 27.38 23.617 49.689 52.924 49.755h107.615L142.52 299.143a49.933 49.933 0 0 0-4.743 5.5L99.23 343.287V234.902c0-28.847-22.386-52.193-49.63-52.293-27.478 0-49.6 23.446-49.6 52.293v222.473c0 .967.199 1.967.299 2.834-.1.7-.2 1.368-.299 2.068C.1 489.824 23.685 512 52.959 512h224.908c29.307 0 52.924-22.176 52.924-49.723 0-27.38-23.617-49.69-52.924-49.757H170.252L369.48 212.857a49.933 49.933 0 0 0 4.743-5.5l38.547-38.644v108.385c0 28.847 22.386 52.193 49.63 52.293 27.478 0 49.6-23.446 49.6-52.293V54.627c0-.967-.199-1.969-.299-2.836.1-.7.2-1.366.299-2.066C511.9 22.178 488.315 0 459.041 0H234.133z"/></svg>