<?xml version="1.0" encoding="UTF-8" standalone="no"?>
<!-- Svg Vector Icons : http://www.onlinewebfonts.com/icon -->

<svg
   xmlns:dc="http://purl.org/dc/elements/1.1/"
   xmlns:cc="http://creativecommons.org/ns#"
   xmlns:rdf="http://www.w3.org/1999/02/22-rdf-syntax-ns#"
   xmlns:svg="http://www.w3.org/2000/svg"
   xmlns="http://www.w3.org/2000/svg"
   xmlns:sodipodi="http://sodipodi.sourceforge.net/DTD/sodipodi-0.dtd"
   xmlns:inkscape="http://www.inkscape.org/namespaces/inkscape"
   version="1.1"
   x="0px"
   y="0px"
   viewBox="0 0 512 512"
   enable-background="new 0 0 1000 1000"
   xml:space="preserve"
   id="svg2"
   inkscape:version="0.91 r13725"
   sodipodi:docname="img_203188.svg"
   width="512"
   height="512"><defs
     id="defs12" /><sodipodi:namedview
     pagecolor="#ffffff"
     bordercolor="#666666"
     borderopacity="1"
     objecttolerance="10"
     gridtolerance="10"
     guidetolerance="10"
     inkscape:pageopacity="0"
     inkscape:pageshadow="2"
     inkscape:window-width="2462"
     inkscape:window-height="1404"
     id="namedview10"
     showgrid="false"
     inkscape:zoom="1.233"
     inkscape:cx="500"
     inkscape:cy="500"
     inkscape:window-x="98"
     inkscape:window-y="36"
     inkscape:window-maximized="1"
     inkscape:current-layer="svg2" /><metadata
     id="metadata4"> Svg Vector Icons : http://www.onlinewebfonts.com/icon <rdf:RDF><cc:Work
     rdf:about=""><dc:format>image/svg+xml</dc:format><dc:type
       rdf:resource="http://purl.org/dc/dcmitype/StillImage" /><dc:title></dc:title></cc:Work></rdf:RDF></metadata><path
     d="M 255.99915,0 C 197.58421,0 150.0365,49.11409 150.0365,109.44143 l 0,138.3005 c 0,60.24041 47.54771,109.35484 105.96265,109.35484 58.41494,0 105.96434,-49.11409 105.96434,-109.44142 l 0,-138.21392 C 361.96349,49.11409 314.41409,0 255.99915,0 Z m 0,31.98981 c 41.46417,0 75.28013,34.77046 75.28013,77.45162 l 0,138.3005 c 0,42.68116 -33.72903,77.45162 -75.28013,77.45162 -41.46418,0 -75.27844,-34.68353 -75.27844,-77.45162 l 0,-138.3005 c 0,-42.68116 33.72733,-77.45162 75.27844,-77.45162 z M 87.014435,150.47029 c -8.51885,0 -15.3871,7.12835 -15.3871,15.9949 l 0,82.58065 c 1.13005,98.2275 75.626815,179.06893 168.986415,187.06622 l 0,0.52291 0,43.37522 -69.80306,0 c -8.51884,0 -15.3854,7.12835 -15.3854,15.9949 0,8.86656 6.86656,15.99491 15.3854,15.99491 l 170.37691,0 c 8.51885,0 15.3871,-7.12835 15.3871,-15.99491 0,-8.86655 -6.86825,-15.9949 -15.3871,-15.9949 l -69.80136,0 0,-43.37522 0,-0.52291 c 93.01189,-8.08422 167.42173,-88.49067 168.98642,-186.28354 l 0,-83.36333 c -0.0869,-8.86655 -6.95518,-15.9949 -15.3871,-15.9949 -8.51884,0 -15.3854,7.12835 -15.3854,15.9949 l 0,82.84211 c -1.3039,85.71002 -70.23802,155.51104 -153.60101,155.51104 -83.7107,0 -152.5562,-70.06282 -153.59932,-156.12055 l 0,-82.2326 c 0,-8.86655 -6.866555,-15.9949 -15.385395,-15.9949 z"
     id="path4145"
     inkscape:connector-curvature="0" /></svg>