<?xml version="1.0" encoding="UTF-8" standalone="no"?>
<svg
   xmlns:dc="http://purl.org/dc/elements/1.1/"
   xmlns:cc="http://creativecommons.org/ns#"
   xmlns:rdf="http://www.w3.org/1999/02/22-rdf-syntax-ns#"
   xmlns:svg="http://www.w3.org/2000/svg"
   xmlns="http://www.w3.org/2000/svg"
   xmlns:sodipodi="http://sodipodi.sourceforge.net/DTD/sodipodi-0.dtd"
   xmlns:inkscape="http://www.inkscape.org/namespaces/inkscape"
   version="1.1"
   x="0px"
   y="0px"
   width="512"
   height="512"
   viewBox="0 0 512 512"
   xml:space="preserve"
   id="svg2"
   inkscape:version="0.91 r13725"
   sodipodi:docname="studio-microphone-clipart-mic.svg"><metadata
     id="metadata13"><rdf:RDF><cc:Work
         rdf:about=""><dc:format>image/svg+xml</dc:format><dc:type
           rdf:resource="http://purl.org/dc/dcmitype/StillImage" /><dc:title></dc:title></cc:Work></rdf:RDF></metadata><defs
     id="defs11" /><sodipodi:namedview
     pagecolor="#ffffff"
     bordercolor="#666666"
     borderopacity="1"
     objecttolerance="10"
     gridtolerance="10"
     guidetolerance="10"
     inkscape:pageopacity="0"
     inkscape:pageshadow="2"
     inkscape:window-width="2462"
     inkscape:window-height="1404"
     id="namedview9"
     showgrid="false"
     inkscape:zoom="0.49166667"
     inkscape:cx="4.0677966"
     inkscape:cy="240"
     inkscape:window-x="98"
     inkscape:window-y="36"
     inkscape:window-maximized="1"
     inkscape:current-layer="svg2" /><g
     id="mic"
     transform="matrix(1.4222104,0,0,1.4222104,-81.38244,-79.640943)"
     style="fill:#000000;fill-opacity:1;stroke:none;stroke-opacity:1"><path
       d="m 290.991,240.991 c 0,26.392 -21.602,47.999 -48.002,47.999 l -11.529,0 c -26.4,0 -48.002,-21.607 -48.002,-47.999 l 0,-136.989 c 0,-26.4 21.602,-48.004 48.002,-48.004 l 11.529,0 c 26.4,0 48.002,21.604 48.002,48.004 l 0,136.989 z"
       id="path5"
       inkscape:connector-curvature="0"
       style="fill:#000000;fill-opacity:1;stroke:none;stroke-opacity:1" /><path
       d="m 342.381,209.85 -8.961,0 c -4.932,0 -8.961,4.034 -8.961,8.961 l 0,8.008 c 0,50.26 -37.109,91.001 -87.361,91.001 -50.26,0 -87.109,-40.741 -87.109,-91.001 l 0,-8.008 c 0,-4.927 -4.029,-8.961 -8.961,-8.961 l -8.961,0 c -4.924,0 -8.961,4.034 -8.961,8.961 l 0,8.008 c 0,58.862 40.229,107.625 96.07,116.362 l 0,36.966 -34.412,0 c -4.932,0 -8.961,4.039 -8.961,8.971 l 0,17.922 c 0,4.923 4.029,8.961 8.961,8.961 l 104.688,0 c 4.926,0 8.961,-4.038 8.961,-8.961 l 0,-17.922 c 0,-4.932 -4.035,-8.971 -8.961,-8.971 l -34.43,0 0,-36.966 c 55.889,-8.729 96.32,-57.5 96.32,-116.362 l 0,-8.008 c 0,-4.927 -4.039,-8.961 -8.961,-8.961 z"
       id="path7"
       inkscape:connector-curvature="0"
       style="fill:#000000;fill-opacity:1;stroke:none;stroke-opacity:1" /></g></svg>